<?xml version="1.0" encoding="UTF-8"?>
<svg id="Layer_2" data-name="Layer 2" xmlns="http://www.w3.org/2000/svg" xmlns:xlink="http://www.w3.org/1999/xlink" viewBox="0 0 211.17 177.32">
  <defs>
    <style>
      .cls-1 {
        fill: url(#linear-gradient);
      }

      .cls-2 {
        fill: #fffffe;
      }
    </style>
    <linearGradient id="linear-gradient" x1=".66" y1="88.66" x2="217.19" y2="88.66" gradientUnits="userSpaceOnUse">
      <stop offset="0" stop-color="#00a2e0"/>
      <stop offset="1" stop-color="#e073ad"/>
    </linearGradient>
  </defs>
  <g id="Layer_1-2" data-name="Layer 1">
    <g>
      <path class="cls-2" d="M201.74,114.82c-5.15,4.64-9.18,10.15-13.26,15.83-3.14,4.11-5.95,9.24-10.73,11.51-6.77,2.4-11.8-5.13-18.56-6.64-8.08-1.89-13.15,2.33-16.32-8.12-3.6-9.26-7.59-9.02-15.94-6.71-5.93,1.12-2.9-14.25-13.35-13.93-6.52-.04-13.99,11.47-9.36-1.82,4.82-14.39,10.86-29.61,14.45-44.54,2.27-9.94,12.53-51.48,5.37-57.44-1.55-1.3-3.68-.35-5.46,2.16-4.01,6.25-4.81,14.5-6.89,21.59-3.49,13.76-8.03,27.24-11.86,41-1.43,5.32-3.44,10.65-7.45,14.52-5.52,5.25-13.68,9.09-18.86,15.18-3.04,2.92-5.69,7.92-8.72,7.4-3.66-2.34-3.29-16.09-3.72-20.63-.45-19.66.31-40.27,2.2-59.8.47-6.66,2.5-14.17.8-20.68-1.88-6.01-6.67-3.83-10.02.39-3.73,4.72-6.58,10.57-9.18,15.93-9.42,19.93-12.8,40.7-21.31,60.99-2.95,7.13-6.37,14.15-9.71,21.06-3.93,8.08-7.79,16.15-11.51,24.34-1.27,3.01-2.73,6.4-2.26,9.64.09.59.52,1.44,1.1,1.48,4.83-.69,7.36-10,9.52-14.13,5.66-12.48,13.51-24.22,19.12-36.79,6.57-14.29,9.74-29.82,14.58-44.72,2.07-5.93,4.6-13.95,8.19-18.68l.05-.04c1.32-.78,1.22,1.56,1.29,3.52-.68,17.4-2.18,35.08-2.03,52.51.1,9.42.41,18.91,2.53,28.13,1.53,6.19,4,11.69,4.38,17.91.44,5.35-.73,10.63-1.12,15.99-.57,7.34-.82,15.74-.37,23.1.21,4.04,1.24,9.26,3.67,11.38,2.35,2.47,6.03,1.88,8.4-.27,5.06-4.22,6.87-12.51,10.64-16.9,3.56-4.03,9.31-3.7,13.06-7.59,1.75-1.68,3.15-3.85,4.31-6.01,1.95-2.33,12.28-34.13,15.7-23.75.79,3.09.23,9.75,1.52,14.1.88,4.02,4.46,8.03,8.7,5.54,2.6-1.33,5.09-4.72,6.83-6.51,1.41-1.55,2.96-2.2,4.06.39,1.81,4.09,3.17,10.41,8.36,11.57,4.82,1.15,10.34-2.06,15.18-.49,4.72,1.51,8.76,5.21,13.67,6.38,10.24,2.99,16.5-7.11,21.61-14.21,3.73-5.18,7.82-10,12.16-14.93,2.48-2.91,6.12-7.07,5.97-10.7-.91-3.57-6.53-.08-9.43,2.49ZM67.12,162.02c-.51.61-.75.28-.75-1l.25-19.95c.25-5.03,1.22-10.01,2-14.97,4.6,1.35,9.28.75,13.98,1.25-4.78,11.75-10.78,22.89-15.48,34.67ZM90.33,105.14c-.72,2.5-2.35,8.99-3.73,10.74-2.85,3.6-11.33,3.36-15.27,1.75-.6-.74,5.16-11.23,6.51-12.49,4.45-4.73,9.32-9.11,15.23-11.97.42.48-2.29,10.39-2.74,11.97Z"/>
      <path class="cls-1" d="M201.74,114.82c-5.15,4.64-9.18,10.15-13.26,15.83-3.14,4.11-5.95,9.24-10.73,11.51-6.77,2.4-11.8-5.13-18.56-6.64-8.08-1.89-13.15,2.33-16.32-8.12-3.6-9.26-7.59-9.02-15.94-6.71-5.93,1.12-2.9-14.25-13.35-13.93-6.52-.04-13.99,11.47-9.36-1.82,4.82-14.39,10.86-29.61,14.45-44.54,2.27-9.94,12.53-51.48,5.37-57.44-1.55-1.3-3.68-.35-5.46,2.16-4.01,6.25-4.81,14.5-6.89,21.59-3.49,13.76-8.03,27.24-11.86,41-1.43,5.32-3.44,10.65-7.45,14.52-5.52,5.25-13.68,9.09-18.86,15.18-3.04,2.92-5.69,7.92-8.72,7.4-3.66-2.34-3.29-16.09-3.72-20.63-.45-19.66.31-40.27,2.2-59.8.47-6.66,2.5-14.17.8-20.68-1.88-6.01-6.67-3.83-10.02.39-3.73,4.72-6.58,10.57-9.18,15.93-9.42,19.93-12.8,40.7-21.31,60.99-2.95,7.13-6.37,14.15-9.71,21.06-3.93,8.08-7.79,16.15-11.51,24.34-1.27,3.01-2.73,6.4-2.26,9.64.09.59.52,1.44,1.1,1.48,4.83-.69,7.36-10,9.52-14.13,5.66-12.48,13.51-24.22,19.12-36.79,6.57-14.29,9.74-29.82,14.58-44.72,2.07-5.93,4.6-13.95,8.19-18.68l.05-.04c1.32-.78,1.22,1.56,1.29,3.52-.68,17.4-2.18,35.08-2.03,52.51.1,9.42.41,18.91,2.53,28.13,1.53,6.19,4,11.69,4.38,17.91.44,5.35-.73,10.63-1.12,15.99-.57,7.34-.82,15.74-.37,23.1.21,4.04,1.24,9.26,3.67,11.38,2.35,2.47,6.03,1.88,8.4-.27,5.06-4.22,6.87-12.51,10.64-16.9,3.56-4.03,9.31-3.7,13.06-7.59,1.75-1.68,3.15-3.85,4.31-6.01,1.95-2.33,12.28-34.13,15.7-23.75.79,3.09.23,9.75,1.52,14.1.88,4.02,4.46,8.03,8.7,5.54,2.6-1.33,5.09-4.72,6.83-6.51,1.41-1.55,2.96-2.2,4.06.39,1.81,4.09,3.17,10.41,8.36,11.57,4.82,1.15,10.34-2.06,15.18-.49,4.72,1.51,8.76,5.21,13.67,6.38,10.24,2.99,16.5-7.11,21.61-14.21,3.73-5.18,7.82-10,12.16-14.93,2.48-2.91,6.12-7.07,5.97-10.7-.91-3.57-6.53-.08-9.43,2.49ZM67.12,162.02c-.51.61-.75.28-.75-1l.25-19.95c.25-5.03,1.22-10.01,2-14.97,4.6,1.35,9.28.75,13.98,1.25-4.78,11.75-10.78,22.89-15.48,34.67ZM90.33,105.14c-.72,2.5-2.35,8.99-3.73,10.74-2.85,3.6-11.33,3.36-15.27,1.75-.6-.74,5.16-11.23,6.51-12.49,4.45-4.73,9.32-9.11,15.23-11.97.42.48-2.29,10.39-2.74,11.97Z"/>
    </g>
  </g>
</svg>